<?xml version="1.0" standalone="no"?>
<!DOCTYPE svg PUBLIC "-//W3C//DTD SVG 20010904//EN"
 "http://www.w3.org/TR/2001/REC-SVG-20010904/DTD/svg10.dtd">
<svg version="1.0" xmlns="http://www.w3.org/2000/svg"
 width="1080.000000pt" height="1080.000000pt" viewBox="0 0 1080.000000 1080.000000"
 preserveAspectRatio="xMidYMid meet">

<g transform="translate(0.000000,1080.000000) scale(0.100000,-0.100000)"
fill="#000000" stroke="none">
<path d="M0 5400 l0 -5400 5400 0 5400 0 0 5400 0 5400 -5400 0 -5400 0 0
-5400z m4548 13 c84 -204 152 -374 152 -377 0 -3 -17 -6 -39 -6 l-38 0 -39
100 -39 100 -160 -2 -159 -3 -37 -95 -36 -95 -43 -3 c-23 -2 -40 1 -39 6 88
223 315 760 320 754 3 -4 74 -174 157 -379z m748 95 l199 -283 5 265 5 265 33
1 32 1 0 -378 c0 -209 -2 -379 -4 -379 -3 0 -94 127 -203 282 l-198 282 -3
-267 -2 -267 -35 0 -35 0 0 380 c0 209 2 380 4 380 2 0 93 -127 202 -282z
m-2279 221 c99 -48 124 -184 48 -264 l-33 -36 27 -13 c35 -19 77 -65 90 -99 6
-16 11 -50 11 -77 0 -85 -35 -140 -115 -183 -35 -19 -60 -22 -197 -25 l-158
-4 0 368 0 367 141 -6 c116 -5 148 -10 186 -28z m3243 21 c137 -19 236 -89
291 -204 88 -186 10 -395 -181 -485 -49 -23 -70 -26 -197 -29 l-143 -4 -1 328
c-1 181 -2 343 -3 359 0 17 0 33 1 36 4 11 155 10 233 -1z m1461 -270 c65
-151 121 -281 126 -289 6 -10 22 18 55 95 25 60 80 190 122 290 l77 181 40 1
c21 1 39 0 39 -2 0 -2 -74 -177 -164 -387 l-164 -383 -15 35 c-8 18 -80 188
-161 376 -80 188 -146 347 -146 353 0 7 14 10 37 8 l38 -3 116 -275z"/>
<path d="M4327 5478 c-31 -79 -59 -151 -63 -160 -6 -17 4 -18 120 -18 71 0
126 4 126 9 0 13 -111 294 -119 304 -4 4 -33 -57 -64 -135z"/>
<path d="M2760 5570 l0 -110 95 0 c136 0 176 24 177 109 1 85 -40 111 -177
111 l-95 0 0 -110z"/>
<path d="M2760 5256 c0 -68 3 -131 6 -140 9 -25 184 -22 241 3 104 48 110 181
11 241 -28 17 -51 20 -145 20 l-113 0 0 -124z"/>
<path d="M6100 5391 l0 -291 88 4 c108 4 157 18 218 65 130 98 144 301 31 419
-60 63 -119 85 -234 90 l-103 4 0 -291z"/>
</g>
</svg>
